<?xml version="1.0" standalone="no"?><!DOCTYPE svg PUBLIC "-//W3C//DTD SVG 1.1//EN" "http://www.w3.org/Graphics/SVG/1.1/DTD/svg11.dtd"><svg t="1572230006993" class="icon" viewBox="0 0 1024 1024" version="1.1" xmlns="http://www.w3.org/2000/svg" p-id="2946" xmlns:xlink="http://www.w3.org/1999/xlink" width="200" height="200"><defs><style type="text/css"></style></defs><path d="M736.60287 169.793637h56.533998a169.729757 169.729757 0 0 1 169.793637 169.729757v452.719151a169.729757 169.729757 0 0 1-169.793637 169.729757H170.68796A169.729757 169.729757 0 0 1 0.958203 792.242545V339.523394a169.729757 169.729757 0 0 1 169.729757-169.729757h56.597879V56.597879a56.597879 56.597879 0 1 1 113.195758 0v113.195758h282.925515V56.597879a56.597879 56.597879 0 0 1 113.195758 0v113.195758zM114.153961 622.512789h570.194885c28.809981 0 52.254024 25.296569 52.254024 56.533998 0 31.30131-23.444042 56.597879-52.254024 56.597879H114.153961v56.597879c0 31.30131 25.296569 56.597879 56.533999 56.597879h622.448908c31.30131 0 56.597879-25.360449 56.597879-56.597879V339.523394a56.597879 56.597879 0 0 0-56.597879-56.533999H170.68796a56.597879 56.597879 0 0 0-56.533999 56.533999v56.597879h286.183406c29.448784 0 53.339988 25.360449 53.339988 56.597879 0 31.30131-23.891204 56.597879-53.276107 56.597879H114.153961v113.195758z" fill="#FFFFFF" p-id="2947"></path></svg>