<?xml version="1.0" standalone="no"?><!DOCTYPE svg PUBLIC "-//W3C//DTD SVG 1.1//EN" "http://www.w3.org/Graphics/SVG/1.1/DTD/svg11.dtd"><svg t="1572230002098" class="icon" viewBox="0 0 1024 1024" version="1.1" xmlns="http://www.w3.org/2000/svg" p-id="2835" xmlns:xlink="http://www.w3.org/1999/xlink" width="200" height="200"><defs><style type="text/css"></style></defs><path d="M662.592 361.408h30.08A331.264 331.264 0 0 1 1024 692.736v271.04h-361.408a301.184 301.184 0 1 1 0-602.368z m240.96 481.92v-150.592a210.816 210.816 0 0 0-210.816-210.88h-30.144a180.736 180.736 0 1 0 0 361.408h240.96z m-588.672-60.288a60.224 60.224 0 0 1 0 120.512H60.16A60.224 60.224 0 0 1 0 843.264V512a512 512 0 0 1 512-512h60.224a451.84 451.84 0 0 1 441.088 353.92 60.224 60.224 0 0 1-117.632 25.984 331.456 331.456 0 0 0-323.456-259.456H512A391.552 391.552 0 0 0 120.448 512v271.04H314.88z" fill="#FFFFFF" p-id="2836"></path></svg>