<?xml version="1.0" standalone="no"?><!DOCTYPE svg PUBLIC "-//W3C//DTD SVG 1.1//EN" "http://www.w3.org/Graphics/SVG/1.1/DTD/svg11.dtd"><svg t="1572229994664" class="icon" viewBox="0 0 1024 1024" version="1.1" xmlns="http://www.w3.org/2000/svg" p-id="2724" xmlns:xlink="http://www.w3.org/1999/xlink" width="200" height="200"><defs><style type="text/css"></style></defs><path d="M768 896h64a64 64 0 0 0 64-64v-192h-128v256z m-128 0V128H128v768h512z m128-384h192a64 64 0 0 1 64 64v256a192 192 0 0 1-192 192H64a64 64 0 0 1-64-64V64a64 64 0 0 1 64-64h640a64 64 0 0 1 64 64v448zM213.312 416a64 64 0 1 1 0-128H448a64 64 0 1 1 0 128H213.312z m1.536 256a64 64 0 0 1 0-128H512a64 64 0 1 1 0 128H214.848z" fill="#FFFFFF" p-id="2725"></path></svg>