<?xml version="1.0" standalone="no"?><!DOCTYPE svg PUBLIC "-//W3C//DTD SVG 1.1//EN" "http://www.w3.org/Graphics/SVG/1.1/DTD/svg11.dtd"><svg t="1572229989900" class="icon" viewBox="0 0 1024 1024" version="1.1" xmlns="http://www.w3.org/2000/svg" p-id="2613" xmlns:xlink="http://www.w3.org/1999/xlink" width="200" height="200"><defs><style type="text/css"></style></defs><path d="M312.320674 983.398423a56.883415 56.883415 0 1 1 44.406176-104.744825A398.119916 398.119916 0 1 0 123.562437 599.483364a56.883415 56.883415 0 1 1-111.015438 24.954479 511.886745 511.886745 0 1 1 299.837661 358.96058z m-170.074371-73.391762a85.293129 85.293129 0 1 1 0-170.586258 85.293129 85.293129 0 0 1 0 170.586258z m0-113.766829a28.409714 28.409714 0 1 0 0 56.9474 28.409714 28.409714 0 0 0 0-56.9474z m468.888259 10.493678a56.883415 56.883415 0 0 1-80.430205-80.430205C604.416048 652.6556 611.582463 544.519525 552.267586 485.012691c-59.506834-59.442848-167.642909-52.212448-241.3546 21.435257A56.883415 56.883415 0 0 1 230.418795 426.017744c115.878362-115.878362 295.806553-127.843715 402.21501-21.435258 106.408457 106.408457 94.379119 286.272662-21.499243 402.151024z" fill="#FFFFFF" p-id="2614"></path></svg>