<?xml version="1.0" standalone="no"?><!DOCTYPE svg PUBLIC "-//W3C//DTD SVG 1.1//EN" "http://www.w3.org/Graphics/SVG/1.1/DTD/svg11.dtd"><svg t="1572229984552" class="icon" viewBox="0 0 1024 1024" version="1.1" xmlns="http://www.w3.org/2000/svg" p-id="2502" xmlns:xlink="http://www.w3.org/1999/xlink" width="200" height="200"><defs><style type="text/css"></style></defs><path d="M677.466353 863.533176h123.422118V377.072941L498.326588 160.828235l-313.223529 223.894589-1.445647 0.963764v477.846588H307.2v-246.90447c0-34.093176 27.587765-61.741176 61.680941-61.741177h246.904471c34.093176 0 61.741176 27.708235 61.741176 61.741177v246.90447zM89.991529 316.958118A61.44 61.44 0 0 1 113.242353 284.310588L462.426353 34.695529a61.741176 61.741176 0 0 1 71.800471 0l349.123764 249.615059c15.179294 10.842353 23.973647 27.407059 25.539765 44.634353 9.637647 10.842353 15.420235 25.178353 15.420235 40.779294v555.489883c0 34.093176-27.648 61.741176-61.680941 61.741176H121.976471A61.741176 61.741176 0 0 1 60.235294 925.214118V369.724235c0-22.347294 11.926588-41.984 29.756235-52.766117z m340.570353 361.411764v185.163294h123.482353v-185.163294h-123.482353z" fill="#FFFFFF" p-id="2503"></path></svg>