<?xml version="1.0" standalone="no"?><!DOCTYPE svg PUBLIC "-//W3C//DTD SVG 1.1//EN" "http://www.w3.org/Graphics/SVG/1.1/DTD/svg11.dtd"><svg t="1572229973146" class="icon" viewBox="0 0 1024 1024" version="1.1" xmlns="http://www.w3.org/2000/svg" p-id="2280" xmlns:xlink="http://www.w3.org/1999/xlink" width="200" height="200"><defs><style type="text/css"></style></defs><path d="M491.712 721.28l-101.76 39.68 26.368-94.72-10.624-7.936a90.368 90.368 0 0 1-18.176-126.464l0.384-0.512 344.384-453.696a90.368 90.368 0 0 1 126.08-17.728l74.24 55.552c40 29.888 48.128 86.464 18.24 126.464l-0.384 0.512-344.448 453.696a90.368 90.368 0 0 1-114.304 25.216z m15.232-147.584l24.32 21.76 304.896-401.728-25.984-19.456-303.232 399.424z m396.608-139.264a60.224 60.224 0 1 1 120.448 0v400.256C1024 941.504 927.744 1024 813.184 1024H210.816C96.256 1024 0 941.44 0 834.688V189.312C0 82.496 96.256 0 210.816 0h354.56a60.224 60.224 0 0 1 0 120.448h-354.56c-51.776 0-90.368 33.088-90.368 68.864v645.376c0 35.84 38.592 68.864 90.368 68.864h602.368c51.776 0 90.368-33.088 90.368-68.864V434.432z" fill="#FFFFFF" p-id="2281"></path></svg>