<?xml version="1.0" standalone="no"?><!DOCTYPE svg PUBLIC "-//W3C//DTD SVG 1.1//EN" "http://www.w3.org/Graphics/SVG/1.1/DTD/svg11.dtd"><svg t="1572229959207" class="icon" viewBox="0 0 1024 1024" version="1.1" xmlns="http://www.w3.org/2000/svg" p-id="2169" xmlns:xlink="http://www.w3.org/1999/xlink" width="200" height="200"><defs><style type="text/css"></style></defs><path d="M152.448 843.264v60.288h481.92V301.184h-481.92v421.632h271.104a60.224 60.224 0 0 1 0 120.448H152.448z m60.416-662.528C216.96 82.688 283.584 0 373.312 0h401.6c92.544 0 160.64 87.936 160.64 189.952v583.808c0 102.08-68.096 190.016-160.64 190.016h-36.224a120.448 120.448 0 0 1-104.32 60.224h-481.92A120.448 120.448 0 0 1 32 903.552V301.184c0-66.56 53.952-120.448 120.448-120.448h60.416z m541.952 662.528h20.096c18.304 0 40.128-28.16 40.128-69.504V189.952c0-41.28-21.824-69.504-40.128-69.504H373.312c-16.896 0-36.8 24.064-39.744 60.288h300.8c66.56 0 120.448 53.888 120.448 120.448v542.08zM453.632 602.368a120.448 120.448 0 1 1 0-240.96 120.448 120.448 0 0 1 0 240.96z" fill="#FFFFFF" p-id="2170"></path></svg>